<?xml version="1.0" encoding="utf-8" standalone="no"?>
<!DOCTYPE svg PUBLIC "-//W3C//DTD SVG 1.1//EN"
  "http://www.w3.org/Graphics/SVG/1.1/DTD/svg11.dtd">
<!-- Created with matplotlib (http://matplotlib.org/) -->
<svg height="288pt" version="1.1" viewBox="0 0 432 288" width="432pt" xmlns="http://www.w3.org/2000/svg" xmlns:xlink="http://www.w3.org/1999/xlink">
 <defs>
  <style type="text/css">
*{stroke-linecap:butt;stroke-linejoin:round;}
  </style>
 </defs>
 <g id="figure_1">
  <g id="patch_1">
   <path d="M 0 288 
L 432 288 
L 432 0 
L 0 0 
z
" style="fill:#ffffff;"/>
  </g>
  <g id="axes_1">
   <g id="patch_2">
    <path d="M 54 252 
L 388.8 252 
L 388.8 34.56 
L 54 34.56 
z
" style="fill:#ffffff;"/>
   </g>
   <g id="matplotlib.axis_1">
    <g id="xtick_1">
     <g id="line2d_1">
      <defs>
       <path d="M 0 0 
L 0 3.5 
" id="mab2ce64dde" style="stroke:#000000;stroke-width:0.8;"/>
      </defs>
      <g>
       <use style="stroke:#000000;stroke-width:0.8;" x="69.218182" xlink:href="#mab2ce64dde" y="252"/>
      </g>
     </g>
     <g id="text_1">
      <!-- 0 -->
      <defs>
       <path d="M 31.78125 66.40625 
Q 24.171875 66.40625 20.328125 58.90625 
Q 16.5 51.421875 16.5 36.375 
Q 16.5 21.390625 20.328125 13.890625 
Q 24.171875 6.390625 31.78125 6.390625 
Q 39.453125 6.390625 43.28125 13.890625 
Q 47.125 21.390625 47.125 36.375 
Q 47.125 51.421875 43.28125 58.90625 
Q 39.453125 66.40625 31.78125 66.40625 
z
M 31.78125 74.21875 
Q 44.046875 74.21875 50.515625 64.515625 
Q 56.984375 54.828125 56.984375 36.375 
Q 56.984375 17.96875 50.515625 8.265625 
Q 44.046875 -1.421875 31.78125 -1.421875 
Q 19.53125 -1.421875 13.0625 8.265625 
Q 6.59375 17.96875 6.59375 36.375 
Q 6.59375 54.828125 13.0625 64.515625 
Q 19.53125 74.21875 31.78125 74.21875 
z
" id="DejaVuSans-30"/>
      </defs>
      <g transform="translate(66.036932 266.598437)scale(0.1 -0.1)">
       <use xlink:href="#DejaVuSans-30"/>
      </g>
     </g>
    </g>
    <g id="xtick_2">
     <g id="line2d_2">
      <g>
       <use style="stroke:#000000;stroke-width:0.8;" x="130.705785" xlink:href="#mab2ce64dde" y="252"/>
      </g>
     </g>
     <g id="text_2">
      <!-- 2000 -->
      <defs>
       <path d="M 19.1875 8.296875 
L 53.609375 8.296875 
L 53.609375 0 
L 7.328125 0 
L 7.328125 8.296875 
Q 12.9375 14.109375 22.625 23.890625 
Q 32.328125 33.6875 34.8125 36.53125 
Q 39.546875 41.84375 41.421875 45.53125 
Q 43.3125 49.21875 43.3125 52.78125 
Q 43.3125 58.59375 39.234375 62.25 
Q 35.15625 65.921875 28.609375 65.921875 
Q 23.96875 65.921875 18.8125 64.3125 
Q 13.671875 62.703125 7.8125 59.421875 
L 7.8125 69.390625 
Q 13.765625 71.78125 18.9375 73 
Q 24.125 74.21875 28.421875 74.21875 
Q 39.75 74.21875 46.484375 68.546875 
Q 53.21875 62.890625 53.21875 53.421875 
Q 53.21875 48.921875 51.53125 44.890625 
Q 49.859375 40.875 45.40625 35.40625 
Q 44.1875 33.984375 37.640625 27.21875 
Q 31.109375 20.453125 19.1875 8.296875 
z
" id="DejaVuSans-32"/>
      </defs>
      <g transform="translate(117.980785 266.598437)scale(0.1 -0.1)">
       <use xlink:href="#DejaVuSans-32"/>
       <use x="63.623047" xlink:href="#DejaVuSans-30"/>
       <use x="127.246094" xlink:href="#DejaVuSans-30"/>
       <use x="190.869141" xlink:href="#DejaVuSans-30"/>
      </g>
     </g>
    </g>
    <g id="xtick_3">
     <g id="line2d_3">
      <g>
       <use style="stroke:#000000;stroke-width:0.8;" x="192.193388" xlink:href="#mab2ce64dde" y="252"/>
      </g>
     </g>
     <g id="text_3">
      <!-- 4000 -->
      <defs>
       <path d="M 37.796875 64.3125 
L 12.890625 25.390625 
L 37.796875 25.390625 
z
M 35.203125 72.90625 
L 47.609375 72.90625 
L 47.609375 25.390625 
L 58.015625 25.390625 
L 58.015625 17.1875 
L 47.609375 17.1875 
L 47.609375 0 
L 37.796875 0 
L 37.796875 17.1875 
L 4.890625 17.1875 
L 4.890625 26.703125 
z
" id="DejaVuSans-34"/>
      </defs>
      <g transform="translate(179.468388 266.598437)scale(0.1 -0.1)">
       <use xlink:href="#DejaVuSans-34"/>
       <use x="63.623047" xlink:href="#DejaVuSans-30"/>
       <use x="127.246094" xlink:href="#DejaVuSans-30"/>
       <use x="190.869141" xlink:href="#DejaVuSans-30"/>
      </g>
     </g>
    </g>
    <g id="xtick_4">
     <g id="line2d_4">
      <g>
       <use style="stroke:#000000;stroke-width:0.8;" x="253.680992" xlink:href="#mab2ce64dde" y="252"/>
      </g>
     </g>
     <g id="text_4">
      <!-- 6000 -->
      <defs>
       <path d="M 33.015625 40.375 
Q 26.375 40.375 22.484375 35.828125 
Q 18.609375 31.296875 18.609375 23.390625 
Q 18.609375 15.53125 22.484375 10.953125 
Q 26.375 6.390625 33.015625 6.390625 
Q 39.65625 6.390625 43.53125 10.953125 
Q 47.40625 15.53125 47.40625 23.390625 
Q 47.40625 31.296875 43.53125 35.828125 
Q 39.65625 40.375 33.015625 40.375 
z
M 52.59375 71.296875 
L 52.59375 62.3125 
Q 48.875 64.0625 45.09375 64.984375 
Q 41.3125 65.921875 37.59375 65.921875 
Q 27.828125 65.921875 22.671875 59.328125 
Q 17.53125 52.734375 16.796875 39.40625 
Q 19.671875 43.65625 24.015625 45.921875 
Q 28.375 48.1875 33.59375 48.1875 
Q 44.578125 48.1875 50.953125 41.515625 
Q 57.328125 34.859375 57.328125 23.390625 
Q 57.328125 12.15625 50.6875 5.359375 
Q 44.046875 -1.421875 33.015625 -1.421875 
Q 20.359375 -1.421875 13.671875 8.265625 
Q 6.984375 17.96875 6.984375 36.375 
Q 6.984375 53.65625 15.1875 63.9375 
Q 23.390625 74.21875 37.203125 74.21875 
Q 40.921875 74.21875 44.703125 73.484375 
Q 48.484375 72.75 52.59375 71.296875 
z
" id="DejaVuSans-36"/>
      </defs>
      <g transform="translate(240.955992 266.598437)scale(0.1 -0.1)">
       <use xlink:href="#DejaVuSans-36"/>
       <use x="63.623047" xlink:href="#DejaVuSans-30"/>
       <use x="127.246094" xlink:href="#DejaVuSans-30"/>
       <use x="190.869141" xlink:href="#DejaVuSans-30"/>
      </g>
     </g>
    </g>
    <g id="xtick_5">
     <g id="line2d_5">
      <g>
       <use style="stroke:#000000;stroke-width:0.8;" x="315.168595" xlink:href="#mab2ce64dde" y="252"/>
      </g>
     </g>
     <g id="text_5">
      <!-- 8000 -->
      <defs>
       <path d="M 31.78125 34.625 
Q 24.75 34.625 20.71875 30.859375 
Q 16.703125 27.09375 16.703125 20.515625 
Q 16.703125 13.921875 20.71875 10.15625 
Q 24.75 6.390625 31.78125 6.390625 
Q 38.8125 6.390625 42.859375 10.171875 
Q 46.921875 13.96875 46.921875 20.515625 
Q 46.921875 27.09375 42.890625 30.859375 
Q 38.875 34.625 31.78125 34.625 
z
M 21.921875 38.8125 
Q 15.578125 40.375 12.03125 44.71875 
Q 8.5 49.078125 8.5 55.328125 
Q 8.5 64.0625 14.71875 69.140625 
Q 20.953125 74.21875 31.78125 74.21875 
Q 42.671875 74.21875 48.875 69.140625 
Q 55.078125 64.0625 55.078125 55.328125 
Q 55.078125 49.078125 51.53125 44.71875 
Q 48 40.375 41.703125 38.8125 
Q 48.828125 37.15625 52.796875 32.3125 
Q 56.78125 27.484375 56.78125 20.515625 
Q 56.78125 9.90625 50.3125 4.234375 
Q 43.84375 -1.421875 31.78125 -1.421875 
Q 19.734375 -1.421875 13.25 4.234375 
Q 6.78125 9.90625 6.78125 20.515625 
Q 6.78125 27.484375 10.78125 32.3125 
Q 14.796875 37.15625 21.921875 38.8125 
z
M 18.3125 54.390625 
Q 18.3125 48.734375 21.84375 45.5625 
Q 25.390625 42.390625 31.78125 42.390625 
Q 38.140625 42.390625 41.71875 45.5625 
Q 45.3125 48.734375 45.3125 54.390625 
Q 45.3125 60.0625 41.71875 63.234375 
Q 38.140625 66.40625 31.78125 66.40625 
Q 25.390625 66.40625 21.84375 63.234375 
Q 18.3125 60.0625 18.3125 54.390625 
z
" id="DejaVuSans-38"/>
      </defs>
      <g transform="translate(302.443595 266.598437)scale(0.1 -0.1)">
       <use xlink:href="#DejaVuSans-38"/>
       <use x="63.623047" xlink:href="#DejaVuSans-30"/>
       <use x="127.246094" xlink:href="#DejaVuSans-30"/>
       <use x="190.869141" xlink:href="#DejaVuSans-30"/>
      </g>
     </g>
    </g>
    <g id="xtick_6">
     <g id="line2d_6">
      <g>
       <use style="stroke:#000000;stroke-width:0.8;" x="376.656198" xlink:href="#mab2ce64dde" y="252"/>
      </g>
     </g>
     <g id="text_6">
      <!-- 10000 -->
      <defs>
       <path d="M 12.40625 8.296875 
L 28.515625 8.296875 
L 28.515625 63.921875 
L 10.984375 60.40625 
L 10.984375 69.390625 
L 28.421875 72.90625 
L 38.28125 72.90625 
L 38.28125 8.296875 
L 54.390625 8.296875 
L 54.390625 0 
L 12.40625 0 
z
" id="DejaVuSans-31"/>
      </defs>
      <g transform="translate(360.749948 266.598437)scale(0.1 -0.1)">
       <use xlink:href="#DejaVuSans-31"/>
       <use x="63.623047" xlink:href="#DejaVuSans-30"/>
       <use x="127.246094" xlink:href="#DejaVuSans-30"/>
       <use x="190.869141" xlink:href="#DejaVuSans-30"/>
       <use x="254.492188" xlink:href="#DejaVuSans-30"/>
      </g>
     </g>
    </g>
    <g id="text_7">
     <!-- numero de nos -->
     <defs>
      <path d="M 54.890625 33.015625 
L 54.890625 0 
L 45.90625 0 
L 45.90625 32.71875 
Q 45.90625 40.484375 42.875 44.328125 
Q 39.84375 48.1875 33.796875 48.1875 
Q 26.515625 48.1875 22.3125 43.546875 
Q 18.109375 38.921875 18.109375 30.90625 
L 18.109375 0 
L 9.078125 0 
L 9.078125 54.6875 
L 18.109375 54.6875 
L 18.109375 46.1875 
Q 21.34375 51.125 25.703125 53.5625 
Q 30.078125 56 35.796875 56 
Q 45.21875 56 50.046875 50.171875 
Q 54.890625 44.34375 54.890625 33.015625 
z
" id="DejaVuSans-6e"/>
      <path d="M 8.5 21.578125 
L 8.5 54.6875 
L 17.484375 54.6875 
L 17.484375 21.921875 
Q 17.484375 14.15625 20.5 10.265625 
Q 23.53125 6.390625 29.59375 6.390625 
Q 36.859375 6.390625 41.078125 11.03125 
Q 45.3125 15.671875 45.3125 23.6875 
L 45.3125 54.6875 
L 54.296875 54.6875 
L 54.296875 0 
L 45.3125 0 
L 45.3125 8.40625 
Q 42.046875 3.421875 37.71875 1 
Q 33.40625 -1.421875 27.6875 -1.421875 
Q 18.265625 -1.421875 13.375 4.4375 
Q 8.5 10.296875 8.5 21.578125 
z
M 31.109375 56 
z
" id="DejaVuSans-75"/>
      <path d="M 52 44.1875 
Q 55.375 50.25 60.0625 53.125 
Q 64.75 56 71.09375 56 
Q 79.640625 56 84.28125 50.015625 
Q 88.921875 44.046875 88.921875 33.015625 
L 88.921875 0 
L 79.890625 0 
L 79.890625 32.71875 
Q 79.890625 40.578125 77.09375 44.375 
Q 74.3125 48.1875 68.609375 48.1875 
Q 61.625 48.1875 57.5625 43.546875 
Q 53.515625 38.921875 53.515625 30.90625 
L 53.515625 0 
L 44.484375 0 
L 44.484375 32.71875 
Q 44.484375 40.625 41.703125 44.40625 
Q 38.921875 48.1875 33.109375 48.1875 
Q 26.21875 48.1875 22.15625 43.53125 
Q 18.109375 38.875 18.109375 30.90625 
L 18.109375 0 
L 9.078125 0 
L 9.078125 54.6875 
L 18.109375 54.6875 
L 18.109375 46.1875 
Q 21.1875 51.21875 25.484375 53.609375 
Q 29.78125 56 35.6875 56 
Q 41.65625 56 45.828125 52.96875 
Q 50 49.953125 52 44.1875 
z
" id="DejaVuSans-6d"/>
      <path d="M 56.203125 29.59375 
L 56.203125 25.203125 
L 14.890625 25.203125 
Q 15.484375 15.921875 20.484375 11.0625 
Q 25.484375 6.203125 34.421875 6.203125 
Q 39.59375 6.203125 44.453125 7.46875 
Q 49.3125 8.734375 54.109375 11.28125 
L 54.109375 2.78125 
Q 49.265625 0.734375 44.1875 -0.34375 
Q 39.109375 -1.421875 33.890625 -1.421875 
Q 20.796875 -1.421875 13.15625 6.1875 
Q 5.515625 13.8125 5.515625 26.8125 
Q 5.515625 40.234375 12.765625 48.109375 
Q 20.015625 56 32.328125 56 
Q 43.359375 56 49.78125 48.890625 
Q 56.203125 41.796875 56.203125 29.59375 
z
M 47.21875 32.234375 
Q 47.125 39.59375 43.09375 43.984375 
Q 39.0625 48.390625 32.421875 48.390625 
Q 24.90625 48.390625 20.390625 44.140625 
Q 15.875 39.890625 15.1875 32.171875 
z
" id="DejaVuSans-65"/>
      <path d="M 41.109375 46.296875 
Q 39.59375 47.171875 37.8125 47.578125 
Q 36.03125 48 33.890625 48 
Q 26.265625 48 22.1875 43.046875 
Q 18.109375 38.09375 18.109375 28.8125 
L 18.109375 0 
L 9.078125 0 
L 9.078125 54.6875 
L 18.109375 54.6875 
L 18.109375 46.1875 
Q 20.953125 51.171875 25.484375 53.578125 
Q 30.03125 56 36.53125 56 
Q 37.453125 56 38.578125 55.875 
Q 39.703125 55.765625 41.0625 55.515625 
z
" id="DejaVuSans-72"/>
      <path d="M 30.609375 48.390625 
Q 23.390625 48.390625 19.1875 42.75 
Q 14.984375 37.109375 14.984375 27.296875 
Q 14.984375 17.484375 19.15625 11.84375 
Q 23.34375 6.203125 30.609375 6.203125 
Q 37.796875 6.203125 41.984375 11.859375 
Q 46.1875 17.53125 46.1875 27.296875 
Q 46.1875 37.015625 41.984375 42.703125 
Q 37.796875 48.390625 30.609375 48.390625 
z
M 30.609375 56 
Q 42.328125 56 49.015625 48.375 
Q 55.71875 40.765625 55.71875 27.296875 
Q 55.71875 13.875 49.015625 6.21875 
Q 42.328125 -1.421875 30.609375 -1.421875 
Q 18.84375 -1.421875 12.171875 6.21875 
Q 5.515625 13.875 5.515625 27.296875 
Q 5.515625 40.765625 12.171875 48.375 
Q 18.84375 56 30.609375 56 
z
" id="DejaVuSans-6f"/>
      <path id="DejaVuSans-20"/>
      <path d="M 45.40625 46.390625 
L 45.40625 75.984375 
L 54.390625 75.984375 
L 54.390625 0 
L 45.40625 0 
L 45.40625 8.203125 
Q 42.578125 3.328125 38.25 0.953125 
Q 33.9375 -1.421875 27.875 -1.421875 
Q 17.96875 -1.421875 11.734375 6.484375 
Q 5.515625 14.40625 5.515625 27.296875 
Q 5.515625 40.1875 11.734375 48.09375 
Q 17.96875 56 27.875 56 
Q 33.9375 56 38.25 53.625 
Q 42.578125 51.265625 45.40625 46.390625 
z
M 14.796875 27.296875 
Q 14.796875 17.390625 18.875 11.75 
Q 22.953125 6.109375 30.078125 6.109375 
Q 37.203125 6.109375 41.296875 11.75 
Q 45.40625 17.390625 45.40625 27.296875 
Q 45.40625 37.203125 41.296875 42.84375 
Q 37.203125 48.484375 30.078125 48.484375 
Q 22.953125 48.484375 18.875 42.84375 
Q 14.796875 37.203125 14.796875 27.296875 
z
" id="DejaVuSans-64"/>
      <path d="M 44.28125 53.078125 
L 44.28125 44.578125 
Q 40.484375 46.53125 36.375 47.5 
Q 32.28125 48.484375 27.875 48.484375 
Q 21.1875 48.484375 17.84375 46.4375 
Q 14.5 44.390625 14.5 40.28125 
Q 14.5 37.15625 16.890625 35.375 
Q 19.28125 33.59375 26.515625 31.984375 
L 29.59375 31.296875 
Q 39.15625 29.25 43.1875 25.515625 
Q 47.21875 21.78125 47.21875 15.09375 
Q 47.21875 7.46875 41.1875 3.015625 
Q 35.15625 -1.421875 24.609375 -1.421875 
Q 20.21875 -1.421875 15.453125 -0.5625 
Q 10.6875 0.296875 5.421875 2 
L 5.421875 11.28125 
Q 10.40625 8.6875 15.234375 7.390625 
Q 20.0625 6.109375 24.8125 6.109375 
Q 31.15625 6.109375 34.5625 8.28125 
Q 37.984375 10.453125 37.984375 14.40625 
Q 37.984375 18.0625 35.515625 20.015625 
Q 33.0625 21.96875 24.703125 23.78125 
L 21.578125 24.515625 
Q 13.234375 26.265625 9.515625 29.90625 
Q 5.8125 33.546875 5.8125 39.890625 
Q 5.8125 47.609375 11.28125 51.796875 
Q 16.75 56 26.8125 56 
Q 31.78125 56 36.171875 55.265625 
Q 40.578125 54.546875 44.28125 53.078125 
z
" id="DejaVuSans-73"/>
     </defs>
     <g transform="translate(183.740625 280.276563)scale(0.1 -0.1)">
      <use xlink:href="#DejaVuSans-6e"/>
      <use x="63.378906" xlink:href="#DejaVuSans-75"/>
      <use x="126.757812" xlink:href="#DejaVuSans-6d"/>
      <use x="224.169922" xlink:href="#DejaVuSans-65"/>
      <use x="285.693359" xlink:href="#DejaVuSans-72"/>
      <use x="326.775391" xlink:href="#DejaVuSans-6f"/>
      <use x="387.957031" xlink:href="#DejaVuSans-20"/>
      <use x="419.744141" xlink:href="#DejaVuSans-64"/>
      <use x="483.220703" xlink:href="#DejaVuSans-65"/>
      <use x="544.744141" xlink:href="#DejaVuSans-20"/>
      <use x="576.53125" xlink:href="#DejaVuSans-6e"/>
      <use x="639.910156" xlink:href="#DejaVuSans-6f"/>
      <use x="701.091797" xlink:href="#DejaVuSans-73"/>
     </g>
    </g>
   </g>
   <g id="matplotlib.axis_2">
    <g id="ytick_1">
     <g id="line2d_7">
      <defs>
       <path d="M 0 0 
L -3.5 0 
" id="m15cd71ca8d" style="stroke:#000000;stroke-width:0.8;"/>
      </defs>
      <g>
       <use style="stroke:#000000;stroke-width:0.8;" x="54" xlink:href="#m15cd71ca8d" y="247.877801"/>
      </g>
     </g>
     <g id="text_8">
      <!-- 0.4 -->
      <defs>
       <path d="M 10.6875 12.40625 
L 21 12.40625 
L 21 0 
L 10.6875 0 
z
" id="DejaVuSans-2e"/>
      </defs>
      <g transform="translate(31.096875 251.677019)scale(0.1 -0.1)">
       <use xlink:href="#DejaVuSans-30"/>
       <use x="63.623047" xlink:href="#DejaVuSans-2e"/>
       <use x="95.410156" xlink:href="#DejaVuSans-34"/>
      </g>
     </g>
    </g>
    <g id="ytick_2">
     <g id="line2d_8">
      <g>
       <use style="stroke:#000000;stroke-width:0.8;" x="54" xlink:href="#m15cd71ca8d" y="220.442303"/>
      </g>
     </g>
     <g id="text_9">
      <!-- 0.6 -->
      <g transform="translate(31.096875 224.241522)scale(0.1 -0.1)">
       <use xlink:href="#DejaVuSans-30"/>
       <use x="63.623047" xlink:href="#DejaVuSans-2e"/>
       <use x="95.410156" xlink:href="#DejaVuSans-36"/>
      </g>
     </g>
    </g>
    <g id="ytick_3">
     <g id="line2d_9">
      <g>
       <use style="stroke:#000000;stroke-width:0.8;" x="54" xlink:href="#m15cd71ca8d" y="193.006806"/>
      </g>
     </g>
     <g id="text_10">
      <!-- 0.8 -->
      <g transform="translate(31.096875 196.806025)scale(0.1 -0.1)">
       <use xlink:href="#DejaVuSans-30"/>
       <use x="63.623047" xlink:href="#DejaVuSans-2e"/>
       <use x="95.410156" xlink:href="#DejaVuSans-38"/>
      </g>
     </g>
    </g>
    <g id="ytick_4">
     <g id="line2d_10">
      <g>
       <use style="stroke:#000000;stroke-width:0.8;" x="54" xlink:href="#m15cd71ca8d" y="165.571308"/>
      </g>
     </g>
     <g id="text_11">
      <!-- 1.0 -->
      <g transform="translate(31.096875 169.370527)scale(0.1 -0.1)">
       <use xlink:href="#DejaVuSans-31"/>
       <use x="63.623047" xlink:href="#DejaVuSans-2e"/>
       <use x="95.410156" xlink:href="#DejaVuSans-30"/>
      </g>
     </g>
    </g>
    <g id="ytick_5">
     <g id="line2d_11">
      <g>
       <use style="stroke:#000000;stroke-width:0.8;" x="54" xlink:href="#m15cd71ca8d" y="138.135811"/>
      </g>
     </g>
     <g id="text_12">
      <!-- 1.2 -->
      <g transform="translate(31.096875 141.93503)scale(0.1 -0.1)">
       <use xlink:href="#DejaVuSans-31"/>
       <use x="63.623047" xlink:href="#DejaVuSans-2e"/>
       <use x="95.410156" xlink:href="#DejaVuSans-32"/>
      </g>
     </g>
    </g>
    <g id="ytick_6">
     <g id="line2d_12">
      <g>
       <use style="stroke:#000000;stroke-width:0.8;" x="54" xlink:href="#m15cd71ca8d" y="110.700313"/>
      </g>
     </g>
     <g id="text_13">
      <!-- 1.4 -->
      <g transform="translate(31.096875 114.499532)scale(0.1 -0.1)">
       <use xlink:href="#DejaVuSans-31"/>
       <use x="63.623047" xlink:href="#DejaVuSans-2e"/>
       <use x="95.410156" xlink:href="#DejaVuSans-34"/>
      </g>
     </g>
    </g>
    <g id="ytick_7">
     <g id="line2d_13">
      <g>
       <use style="stroke:#000000;stroke-width:0.8;" x="54" xlink:href="#m15cd71ca8d" y="83.264816"/>
      </g>
     </g>
     <g id="text_14">
      <!-- 1.6 -->
      <g transform="translate(31.096875 87.064035)scale(0.1 -0.1)">
       <use xlink:href="#DejaVuSans-31"/>
       <use x="63.623047" xlink:href="#DejaVuSans-2e"/>
       <use x="95.410156" xlink:href="#DejaVuSans-36"/>
      </g>
     </g>
    </g>
    <g id="ytick_8">
     <g id="line2d_14">
      <g>
       <use style="stroke:#000000;stroke-width:0.8;" x="54" xlink:href="#m15cd71ca8d" y="55.829319"/>
      </g>
     </g>
     <g id="text_15">
      <!-- 1.8 -->
      <g transform="translate(31.096875 59.628537)scale(0.1 -0.1)">
       <use xlink:href="#DejaVuSans-31"/>
       <use x="63.623047" xlink:href="#DejaVuSans-2e"/>
       <use x="95.410156" xlink:href="#DejaVuSans-38"/>
      </g>
     </g>
    </g>
    <g id="text_16">
     <!-- tempo (e-7) -->
     <defs>
      <path d="M 18.3125 70.21875 
L 18.3125 54.6875 
L 36.8125 54.6875 
L 36.8125 47.703125 
L 18.3125 47.703125 
L 18.3125 18.015625 
Q 18.3125 11.328125 20.140625 9.421875 
Q 21.96875 7.515625 27.59375 7.515625 
L 36.8125 7.515625 
L 36.8125 0 
L 27.59375 0 
Q 17.1875 0 13.234375 3.875 
Q 9.28125 7.765625 9.28125 18.015625 
L 9.28125 47.703125 
L 2.6875 47.703125 
L 2.6875 54.6875 
L 9.28125 54.6875 
L 9.28125 70.21875 
z
" id="DejaVuSans-74"/>
      <path d="M 18.109375 8.203125 
L 18.109375 -20.796875 
L 9.078125 -20.796875 
L 9.078125 54.6875 
L 18.109375 54.6875 
L 18.109375 46.390625 
Q 20.953125 51.265625 25.265625 53.625 
Q 29.59375 56 35.59375 56 
Q 45.5625 56 51.78125 48.09375 
Q 58.015625 40.1875 58.015625 27.296875 
Q 58.015625 14.40625 51.78125 6.484375 
Q 45.5625 -1.421875 35.59375 -1.421875 
Q 29.59375 -1.421875 25.265625 0.953125 
Q 20.953125 3.328125 18.109375 8.203125 
z
M 48.6875 27.296875 
Q 48.6875 37.203125 44.609375 42.84375 
Q 40.53125 48.484375 33.40625 48.484375 
Q 26.265625 48.484375 22.1875 42.84375 
Q 18.109375 37.203125 18.109375 27.296875 
Q 18.109375 17.390625 22.1875 11.75 
Q 26.265625 6.109375 33.40625 6.109375 
Q 40.53125 6.109375 44.609375 11.75 
Q 48.6875 17.390625 48.6875 27.296875 
z
" id="DejaVuSans-70"/>
      <path d="M 31 75.875 
Q 24.46875 64.65625 21.28125 53.65625 
Q 18.109375 42.671875 18.109375 31.390625 
Q 18.109375 20.125 21.3125 9.0625 
Q 24.515625 -2 31 -13.1875 
L 23.1875 -13.1875 
Q 15.875 -1.703125 12.234375 9.375 
Q 8.59375 20.453125 8.59375 31.390625 
Q 8.59375 42.28125 12.203125 53.3125 
Q 15.828125 64.359375 23.1875 75.875 
z
" id="DejaVuSans-28"/>
      <path d="M 4.890625 31.390625 
L 31.203125 31.390625 
L 31.203125 23.390625 
L 4.890625 23.390625 
z
" id="DejaVuSans-2d"/>
      <path d="M 8.203125 72.90625 
L 55.078125 72.90625 
L 55.078125 68.703125 
L 28.609375 0 
L 18.3125 0 
L 43.21875 64.59375 
L 8.203125 64.59375 
z
" id="DejaVuSans-37"/>
      <path d="M 8.015625 75.875 
L 15.828125 75.875 
Q 23.140625 64.359375 26.78125 53.3125 
Q 30.421875 42.28125 30.421875 31.390625 
Q 30.421875 20.453125 26.78125 9.375 
Q 23.140625 -1.703125 15.828125 -13.1875 
L 8.015625 -13.1875 
Q 14.5 -2 17.703125 9.0625 
Q 20.90625 20.125 20.90625 31.390625 
Q 20.90625 42.671875 17.703125 53.65625 
Q 14.5 64.65625 8.015625 75.875 
z
" id="DejaVuSans-29"/>
     </defs>
     <g transform="translate(25.017187 172.972969)rotate(-90)scale(0.1 -0.1)">
      <use xlink:href="#DejaVuSans-74"/>
      <use x="39.208984" xlink:href="#DejaVuSans-65"/>
      <use x="100.732422" xlink:href="#DejaVuSans-6d"/>
      <use x="198.144531" xlink:href="#DejaVuSans-70"/>
      <use x="261.621094" xlink:href="#DejaVuSans-6f"/>
      <use x="322.802734" xlink:href="#DejaVuSans-20"/>
      <use x="354.589844" xlink:href="#DejaVuSans-28"/>
      <use x="393.603516" xlink:href="#DejaVuSans-65"/>
      <use x="455.126953" xlink:href="#DejaVuSans-2d"/>
      <use x="491.210938" xlink:href="#DejaVuSans-37"/>
      <use x="554.833984" xlink:href="#DejaVuSans-29"/>
     </g>
    </g>
   </g>
   <g id="line2d_15">
    <path clip-path="url(#p95106707ac)" d="M 69.218182 90.946749 
L 72.292562 156.517768 
L 75.366942 102.332548 
L 78.441322 127.847415 
L 81.515702 123.320793 
L 84.590083 141.016564 
L 87.664463 141.153553 
L 90.738843 69.958753 
L 93.813223 44.443636 
L 96.887603 142.799666 
L 99.961983 133.197468 
L 103.036364 194.790319 
L 106.110744 194.104127 
L 109.185124 200.825815 
L 112.259504 222.636992 
L 115.333884 225.380513 
L 118.408264 207.136038 
L 121.482645 186.833735 
L 124.557025 221.951299 
L 127.631405 212.348852 
L 130.705785 222.911469 
L 133.780165 221.128118 
L 136.854545 205.078459 
L 139.928926 211.388432 
L 143.003306 213.172033 
L 146.077686 206.450095 
L 149.152066 230.730565 
L 152.226446 212.48609 
L 155.300826 225.243524 
L 158.375207 196.436182 
L 161.449587 186.833735 
L 164.523967 226.340932 
L 167.598347 210.976967 
L 170.672727 234.98321 
L 173.747107 237.315265 
L 176.821488 212.074375 
L 179.895868 217.149951 
L 182.970248 210.428512 
L 186.044628 218.796063 
L 189.119008 226.203943 
L 192.193388 221.539584 
L 195.267769 213.583499 
L 198.342149 207.82198 
L 201.416529 183.815737 
L 204.490909 212.485841 
L 207.565289 222.636992 
L 210.639669 228.810226 
L 213.71405 215.092373 
L 216.78843 213.720487 
L 219.86281 213.857726 
L 222.93719 217.012712 
L 226.01157 220.853891 
L 229.08595 226.478171 
L 232.160331 214.680907 
L 235.234711 224.557581 
L 238.309091 221.265357 
L 241.383471 184.227452 
L 244.457851 218.521836 
L 247.532231 222.636992 
L 250.606612 219.207778 
L 253.680992 224.69482 
L 256.755372 225.380762 
L 259.829752 231.690735 
L 262.904132 242.116364 
L 265.978512 220.99088 
L 269.052893 220.716652 
L 272.127273 220.991129 
L 275.201653 222.225526 
L 278.276033 180.797989 
L 281.350413 225.243524 
L 284.424793 215.092373 
L 287.499174 215.092373 
L 290.573554 222.500003 
L 293.647934 228.261522 
L 296.722314 231.004793 
L 299.796694 232.925382 
L 302.871074 226.478171 
L 305.945455 209.74232 
L 309.019835 222.088538 
L 312.094215 224.008877 
L 315.168595 201.374769 
L 318.242975 205.627164 
L 321.317355 231.142281 
L 324.391736 223.460173 
L 327.466116 217.698655 
L 330.540496 218.384597 
L 333.614876 208.78215 
L 336.689256 223.7344 
L 339.763636 219.893721 
L 342.838017 204.11804 
L 345.912397 219.207778 
L 348.986777 213.583249 
L 352.061157 210.016797 
L 355.135537 186.970973 
L 358.209917 229.907634 
L 361.284298 238.549662 
L 364.358678 235.669152 
L 367.433058 226.61516 
L 370.507438 227.575579 
L 373.581818 237.315265 
" style="fill:none;stroke:#1f77b4;stroke-linecap:square;stroke-width:1.5;"/>
   </g>
   <g id="line2d_16">
    <defs>
     <path d="M 0 1.5 
C 0.397805 1.5 0.77937 1.341951 1.06066 1.06066 
C 1.341951 0.77937 1.5 0.397805 1.5 0 
C 1.5 -0.397805 1.341951 -0.77937 1.06066 -1.06066 
C 0.77937 -1.341951 0.397805 -1.5 0 -1.5 
C -0.397805 -1.5 -0.77937 -1.341951 -1.06066 -1.06066 
C -1.341951 -0.77937 -1.5 -0.397805 -1.5 0 
C -1.5 0.397805 -1.341951 0.77937 -1.06066 1.06066 
C -0.77937 1.341951 -0.397805 1.5 0 1.5 
z
" id="m404cb005e4" style="stroke:#00bfbf;"/>
    </defs>
    <g clip-path="url(#p95106707ac)">
     <use style="fill:#00bfbf;stroke:#00bfbf;" x="69.218182" xlink:href="#m404cb005e4" y="90.946749"/>
     <use style="fill:#00bfbf;stroke:#00bfbf;" x="72.292562" xlink:href="#m404cb005e4" y="156.517768"/>
     <use style="fill:#00bfbf;stroke:#00bfbf;" x="75.366942" xlink:href="#m404cb005e4" y="102.332548"/>
     <use style="fill:#00bfbf;stroke:#00bfbf;" x="78.441322" xlink:href="#m404cb005e4" y="127.847415"/>
     <use style="fill:#00bfbf;stroke:#00bfbf;" x="81.515702" xlink:href="#m404cb005e4" y="123.320793"/>
     <use style="fill:#00bfbf;stroke:#00bfbf;" x="84.590083" xlink:href="#m404cb005e4" y="141.016564"/>
     <use style="fill:#00bfbf;stroke:#00bfbf;" x="87.664463" xlink:href="#m404cb005e4" y="141.153553"/>
     <use style="fill:#00bfbf;stroke:#00bfbf;" x="90.738843" xlink:href="#m404cb005e4" y="69.958753"/>
     <use style="fill:#00bfbf;stroke:#00bfbf;" x="93.813223" xlink:href="#m404cb005e4" y="44.443636"/>
     <use style="fill:#00bfbf;stroke:#00bfbf;" x="96.887603" xlink:href="#m404cb005e4" y="142.799666"/>
     <use style="fill:#00bfbf;stroke:#00bfbf;" x="99.961983" xlink:href="#m404cb005e4" y="133.197468"/>
     <use style="fill:#00bfbf;stroke:#00bfbf;" x="103.036364" xlink:href="#m404cb005e4" y="194.790319"/>
     <use style="fill:#00bfbf;stroke:#00bfbf;" x="106.110744" xlink:href="#m404cb005e4" y="194.104127"/>
     <use style="fill:#00bfbf;stroke:#00bfbf;" x="109.185124" xlink:href="#m404cb005e4" y="200.825815"/>
     <use style="fill:#00bfbf;stroke:#00bfbf;" x="112.259504" xlink:href="#m404cb005e4" y="222.636992"/>
     <use style="fill:#00bfbf;stroke:#00bfbf;" x="115.333884" xlink:href="#m404cb005e4" y="225.380513"/>
     <use style="fill:#00bfbf;stroke:#00bfbf;" x="118.408264" xlink:href="#m404cb005e4" y="207.136038"/>
     <use style="fill:#00bfbf;stroke:#00bfbf;" x="121.482645" xlink:href="#m404cb005e4" y="186.833735"/>
     <use style="fill:#00bfbf;stroke:#00bfbf;" x="124.557025" xlink:href="#m404cb005e4" y="221.951299"/>
     <use style="fill:#00bfbf;stroke:#00bfbf;" x="127.631405" xlink:href="#m404cb005e4" y="212.348852"/>
     <use style="fill:#00bfbf;stroke:#00bfbf;" x="130.705785" xlink:href="#m404cb005e4" y="222.911469"/>
     <use style="fill:#00bfbf;stroke:#00bfbf;" x="133.780165" xlink:href="#m404cb005e4" y="221.128118"/>
     <use style="fill:#00bfbf;stroke:#00bfbf;" x="136.854545" xlink:href="#m404cb005e4" y="205.078459"/>
     <use style="fill:#00bfbf;stroke:#00bfbf;" x="139.928926" xlink:href="#m404cb005e4" y="211.388432"/>
     <use style="fill:#00bfbf;stroke:#00bfbf;" x="143.003306" xlink:href="#m404cb005e4" y="213.172033"/>
     <use style="fill:#00bfbf;stroke:#00bfbf;" x="146.077686" xlink:href="#m404cb005e4" y="206.450095"/>
     <use style="fill:#00bfbf;stroke:#00bfbf;" x="149.152066" xlink:href="#m404cb005e4" y="230.730565"/>
     <use style="fill:#00bfbf;stroke:#00bfbf;" x="152.226446" xlink:href="#m404cb005e4" y="212.48609"/>
     <use style="fill:#00bfbf;stroke:#00bfbf;" x="155.300826" xlink:href="#m404cb005e4" y="225.243524"/>
     <use style="fill:#00bfbf;stroke:#00bfbf;" x="158.375207" xlink:href="#m404cb005e4" y="196.436182"/>
     <use style="fill:#00bfbf;stroke:#00bfbf;" x="161.449587" xlink:href="#m404cb005e4" y="186.833735"/>
     <use style="fill:#00bfbf;stroke:#00bfbf;" x="164.523967" xlink:href="#m404cb005e4" y="226.340932"/>
     <use style="fill:#00bfbf;stroke:#00bfbf;" x="167.598347" xlink:href="#m404cb005e4" y="210.976967"/>
     <use style="fill:#00bfbf;stroke:#00bfbf;" x="170.672727" xlink:href="#m404cb005e4" y="234.98321"/>
     <use style="fill:#00bfbf;stroke:#00bfbf;" x="173.747107" xlink:href="#m404cb005e4" y="237.315265"/>
     <use style="fill:#00bfbf;stroke:#00bfbf;" x="176.821488" xlink:href="#m404cb005e4" y="212.074375"/>
     <use style="fill:#00bfbf;stroke:#00bfbf;" x="179.895868" xlink:href="#m404cb005e4" y="217.149951"/>
     <use style="fill:#00bfbf;stroke:#00bfbf;" x="182.970248" xlink:href="#m404cb005e4" y="210.428512"/>
     <use style="fill:#00bfbf;stroke:#00bfbf;" x="186.044628" xlink:href="#m404cb005e4" y="218.796063"/>
     <use style="fill:#00bfbf;stroke:#00bfbf;" x="189.119008" xlink:href="#m404cb005e4" y="226.203943"/>
     <use style="fill:#00bfbf;stroke:#00bfbf;" x="192.193388" xlink:href="#m404cb005e4" y="221.539584"/>
     <use style="fill:#00bfbf;stroke:#00bfbf;" x="195.267769" xlink:href="#m404cb005e4" y="213.583499"/>
     <use style="fill:#00bfbf;stroke:#00bfbf;" x="198.342149" xlink:href="#m404cb005e4" y="207.82198"/>
     <use style="fill:#00bfbf;stroke:#00bfbf;" x="201.416529" xlink:href="#m404cb005e4" y="183.815737"/>
     <use style="fill:#00bfbf;stroke:#00bfbf;" x="204.490909" xlink:href="#m404cb005e4" y="212.485841"/>
     <use style="fill:#00bfbf;stroke:#00bfbf;" x="207.565289" xlink:href="#m404cb005e4" y="222.636992"/>
     <use style="fill:#00bfbf;stroke:#00bfbf;" x="210.639669" xlink:href="#m404cb005e4" y="228.810226"/>
     <use style="fill:#00bfbf;stroke:#00bfbf;" x="213.71405" xlink:href="#m404cb005e4" y="215.092373"/>
     <use style="fill:#00bfbf;stroke:#00bfbf;" x="216.78843" xlink:href="#m404cb005e4" y="213.720487"/>
     <use style="fill:#00bfbf;stroke:#00bfbf;" x="219.86281" xlink:href="#m404cb005e4" y="213.857726"/>
     <use style="fill:#00bfbf;stroke:#00bfbf;" x="222.93719" xlink:href="#m404cb005e4" y="217.012712"/>
     <use style="fill:#00bfbf;stroke:#00bfbf;" x="226.01157" xlink:href="#m404cb005e4" y="220.853891"/>
     <use style="fill:#00bfbf;stroke:#00bfbf;" x="229.08595" xlink:href="#m404cb005e4" y="226.478171"/>
     <use style="fill:#00bfbf;stroke:#00bfbf;" x="232.160331" xlink:href="#m404cb005e4" y="214.680907"/>
     <use style="fill:#00bfbf;stroke:#00bfbf;" x="235.234711" xlink:href="#m404cb005e4" y="224.557581"/>
     <use style="fill:#00bfbf;stroke:#00bfbf;" x="238.309091" xlink:href="#m404cb005e4" y="221.265357"/>
     <use style="fill:#00bfbf;stroke:#00bfbf;" x="241.383471" xlink:href="#m404cb005e4" y="184.227452"/>
     <use style="fill:#00bfbf;stroke:#00bfbf;" x="244.457851" xlink:href="#m404cb005e4" y="218.521836"/>
     <use style="fill:#00bfbf;stroke:#00bfbf;" x="247.532231" xlink:href="#m404cb005e4" y="222.636992"/>
     <use style="fill:#00bfbf;stroke:#00bfbf;" x="250.606612" xlink:href="#m404cb005e4" y="219.207778"/>
     <use style="fill:#00bfbf;stroke:#00bfbf;" x="253.680992" xlink:href="#m404cb005e4" y="224.69482"/>
     <use style="fill:#00bfbf;stroke:#00bfbf;" x="256.755372" xlink:href="#m404cb005e4" y="225.380762"/>
     <use style="fill:#00bfbf;stroke:#00bfbf;" x="259.829752" xlink:href="#m404cb005e4" y="231.690735"/>
     <use style="fill:#00bfbf;stroke:#00bfbf;" x="262.904132" xlink:href="#m404cb005e4" y="242.116364"/>
     <use style="fill:#00bfbf;stroke:#00bfbf;" x="265.978512" xlink:href="#m404cb005e4" y="220.99088"/>
     <use style="fill:#00bfbf;stroke:#00bfbf;" x="269.052893" xlink:href="#m404cb005e4" y="220.716652"/>
     <use style="fill:#00bfbf;stroke:#00bfbf;" x="272.127273" xlink:href="#m404cb005e4" y="220.991129"/>
     <use style="fill:#00bfbf;stroke:#00bfbf;" x="275.201653" xlink:href="#m404cb005e4" y="222.225526"/>
     <use style="fill:#00bfbf;stroke:#00bfbf;" x="278.276033" xlink:href="#m404cb005e4" y="180.797989"/>
     <use style="fill:#00bfbf;stroke:#00bfbf;" x="281.350413" xlink:href="#m404cb005e4" y="225.243524"/>
     <use style="fill:#00bfbf;stroke:#00bfbf;" x="284.424793" xlink:href="#m404cb005e4" y="215.092373"/>
     <use style="fill:#00bfbf;stroke:#00bfbf;" x="287.499174" xlink:href="#m404cb005e4" y="215.092373"/>
     <use style="fill:#00bfbf;stroke:#00bfbf;" x="290.573554" xlink:href="#m404cb005e4" y="222.500003"/>
     <use style="fill:#00bfbf;stroke:#00bfbf;" x="293.647934" xlink:href="#m404cb005e4" y="228.261522"/>
     <use style="fill:#00bfbf;stroke:#00bfbf;" x="296.722314" xlink:href="#m404cb005e4" y="231.004793"/>
     <use style="fill:#00bfbf;stroke:#00bfbf;" x="299.796694" xlink:href="#m404cb005e4" y="232.925382"/>
     <use style="fill:#00bfbf;stroke:#00bfbf;" x="302.871074" xlink:href="#m404cb005e4" y="226.478171"/>
     <use style="fill:#00bfbf;stroke:#00bfbf;" x="305.945455" xlink:href="#m404cb005e4" y="209.74232"/>
     <use style="fill:#00bfbf;stroke:#00bfbf;" x="309.019835" xlink:href="#m404cb005e4" y="222.088538"/>
     <use style="fill:#00bfbf;stroke:#00bfbf;" x="312.094215" xlink:href="#m404cb005e4" y="224.008877"/>
     <use style="fill:#00bfbf;stroke:#00bfbf;" x="315.168595" xlink:href="#m404cb005e4" y="201.374769"/>
     <use style="fill:#00bfbf;stroke:#00bfbf;" x="318.242975" xlink:href="#m404cb005e4" y="205.627164"/>
     <use style="fill:#00bfbf;stroke:#00bfbf;" x="321.317355" xlink:href="#m404cb005e4" y="231.142281"/>
     <use style="fill:#00bfbf;stroke:#00bfbf;" x="324.391736" xlink:href="#m404cb005e4" y="223.460173"/>
     <use style="fill:#00bfbf;stroke:#00bfbf;" x="327.466116" xlink:href="#m404cb005e4" y="217.698655"/>
     <use style="fill:#00bfbf;stroke:#00bfbf;" x="330.540496" xlink:href="#m404cb005e4" y="218.384597"/>
     <use style="fill:#00bfbf;stroke:#00bfbf;" x="333.614876" xlink:href="#m404cb005e4" y="208.78215"/>
     <use style="fill:#00bfbf;stroke:#00bfbf;" x="336.689256" xlink:href="#m404cb005e4" y="223.7344"/>
     <use style="fill:#00bfbf;stroke:#00bfbf;" x="339.763636" xlink:href="#m404cb005e4" y="219.893721"/>
     <use style="fill:#00bfbf;stroke:#00bfbf;" x="342.838017" xlink:href="#m404cb005e4" y="204.11804"/>
     <use style="fill:#00bfbf;stroke:#00bfbf;" x="345.912397" xlink:href="#m404cb005e4" y="219.207778"/>
     <use style="fill:#00bfbf;stroke:#00bfbf;" x="348.986777" xlink:href="#m404cb005e4" y="213.583249"/>
     <use style="fill:#00bfbf;stroke:#00bfbf;" x="352.061157" xlink:href="#m404cb005e4" y="210.016797"/>
     <use style="fill:#00bfbf;stroke:#00bfbf;" x="355.135537" xlink:href="#m404cb005e4" y="186.970973"/>
     <use style="fill:#00bfbf;stroke:#00bfbf;" x="358.209917" xlink:href="#m404cb005e4" y="229.907634"/>
     <use style="fill:#00bfbf;stroke:#00bfbf;" x="361.284298" xlink:href="#m404cb005e4" y="238.549662"/>
     <use style="fill:#00bfbf;stroke:#00bfbf;" x="364.358678" xlink:href="#m404cb005e4" y="235.669152"/>
     <use style="fill:#00bfbf;stroke:#00bfbf;" x="367.433058" xlink:href="#m404cb005e4" y="226.61516"/>
     <use style="fill:#00bfbf;stroke:#00bfbf;" x="370.507438" xlink:href="#m404cb005e4" y="227.575579"/>
     <use style="fill:#00bfbf;stroke:#00bfbf;" x="373.581818" xlink:href="#m404cb005e4" y="237.315265"/>
    </g>
   </g>
   <g id="patch_3">
    <path d="M 54 252 
L 54 34.56 
" style="fill:none;stroke:#000000;stroke-linecap:square;stroke-linejoin:miter;stroke-width:0.8;"/>
   </g>
   <g id="patch_4">
    <path d="M 388.8 252 
L 388.8 34.56 
" style="fill:none;stroke:#000000;stroke-linecap:square;stroke-linejoin:miter;stroke-width:0.8;"/>
   </g>
   <g id="patch_5">
    <path d="M 54 252 
L 388.8 252 
" style="fill:none;stroke:#000000;stroke-linecap:square;stroke-linejoin:miter;stroke-width:0.8;"/>
   </g>
   <g id="patch_6">
    <path d="M 54 34.56 
L 388.8 34.56 
" style="fill:none;stroke:#000000;stroke-linecap:square;stroke-linejoin:miter;stroke-width:0.8;"/>
   </g>
   <g id="text_17">
    <!-- Crescimento funcao insercao heap -->
    <defs>
     <path d="M 64.40625 67.28125 
L 64.40625 56.890625 
Q 59.421875 61.53125 53.78125 63.8125 
Q 48.140625 66.109375 41.796875 66.109375 
Q 29.296875 66.109375 22.65625 58.46875 
Q 16.015625 50.828125 16.015625 36.375 
Q 16.015625 21.96875 22.65625 14.328125 
Q 29.296875 6.6875 41.796875 6.6875 
Q 48.140625 6.6875 53.78125 8.984375 
Q 59.421875 11.28125 64.40625 15.921875 
L 64.40625 5.609375 
Q 59.234375 2.09375 53.4375 0.328125 
Q 47.65625 -1.421875 41.21875 -1.421875 
Q 24.65625 -1.421875 15.125 8.703125 
Q 5.609375 18.84375 5.609375 36.375 
Q 5.609375 53.953125 15.125 64.078125 
Q 24.65625 74.21875 41.21875 74.21875 
Q 47.75 74.21875 53.53125 72.484375 
Q 59.328125 70.75 64.40625 67.28125 
z
" id="DejaVuSans-43"/>
     <path d="M 48.78125 52.59375 
L 48.78125 44.1875 
Q 44.96875 46.296875 41.140625 47.34375 
Q 37.3125 48.390625 33.40625 48.390625 
Q 24.65625 48.390625 19.8125 42.84375 
Q 14.984375 37.3125 14.984375 27.296875 
Q 14.984375 17.28125 19.8125 11.734375 
Q 24.65625 6.203125 33.40625 6.203125 
Q 37.3125 6.203125 41.140625 7.25 
Q 44.96875 8.296875 48.78125 10.40625 
L 48.78125 2.09375 
Q 45.015625 0.34375 40.984375 -0.53125 
Q 36.96875 -1.421875 32.421875 -1.421875 
Q 20.0625 -1.421875 12.78125 6.34375 
Q 5.515625 14.109375 5.515625 27.296875 
Q 5.515625 40.671875 12.859375 48.328125 
Q 20.21875 56 33.015625 56 
Q 37.15625 56 41.109375 55.140625 
Q 45.0625 54.296875 48.78125 52.59375 
z
" id="DejaVuSans-63"/>
     <path d="M 9.421875 54.6875 
L 18.40625 54.6875 
L 18.40625 0 
L 9.421875 0 
z
M 9.421875 75.984375 
L 18.40625 75.984375 
L 18.40625 64.59375 
L 9.421875 64.59375 
z
" id="DejaVuSans-69"/>
     <path d="M 37.109375 75.984375 
L 37.109375 68.5 
L 28.515625 68.5 
Q 23.6875 68.5 21.796875 66.546875 
Q 19.921875 64.59375 19.921875 59.515625 
L 19.921875 54.6875 
L 34.71875 54.6875 
L 34.71875 47.703125 
L 19.921875 47.703125 
L 19.921875 0 
L 10.890625 0 
L 10.890625 47.703125 
L 2.296875 47.703125 
L 2.296875 54.6875 
L 10.890625 54.6875 
L 10.890625 58.5 
Q 10.890625 67.625 15.140625 71.796875 
Q 19.390625 75.984375 28.609375 75.984375 
z
" id="DejaVuSans-66"/>
     <path d="M 34.28125 27.484375 
Q 23.390625 27.484375 19.1875 25 
Q 14.984375 22.515625 14.984375 16.5 
Q 14.984375 11.71875 18.140625 8.90625 
Q 21.296875 6.109375 26.703125 6.109375 
Q 34.1875 6.109375 38.703125 11.40625 
Q 43.21875 16.703125 43.21875 25.484375 
L 43.21875 27.484375 
z
M 52.203125 31.203125 
L 52.203125 0 
L 43.21875 0 
L 43.21875 8.296875 
Q 40.140625 3.328125 35.546875 0.953125 
Q 30.953125 -1.421875 24.3125 -1.421875 
Q 15.921875 -1.421875 10.953125 3.296875 
Q 6 8.015625 6 15.921875 
Q 6 25.140625 12.171875 29.828125 
Q 18.359375 34.515625 30.609375 34.515625 
L 43.21875 34.515625 
L 43.21875 35.40625 
Q 43.21875 41.609375 39.140625 45 
Q 35.0625 48.390625 27.6875 48.390625 
Q 23 48.390625 18.546875 47.265625 
Q 14.109375 46.140625 10.015625 43.890625 
L 10.015625 52.203125 
Q 14.9375 54.109375 19.578125 55.046875 
Q 24.21875 56 28.609375 56 
Q 40.484375 56 46.34375 49.84375 
Q 52.203125 43.703125 52.203125 31.203125 
z
" id="DejaVuSans-61"/>
     <path d="M 54.890625 33.015625 
L 54.890625 0 
L 45.90625 0 
L 45.90625 32.71875 
Q 45.90625 40.484375 42.875 44.328125 
Q 39.84375 48.1875 33.796875 48.1875 
Q 26.515625 48.1875 22.3125 43.546875 
Q 18.109375 38.921875 18.109375 30.90625 
L 18.109375 0 
L 9.078125 0 
L 9.078125 75.984375 
L 18.109375 75.984375 
L 18.109375 46.1875 
Q 21.34375 51.125 25.703125 53.5625 
Q 30.078125 56 35.796875 56 
Q 45.21875 56 50.046875 50.171875 
Q 54.890625 44.34375 54.890625 33.015625 
z
" id="DejaVuSans-68"/>
    </defs>
    <g transform="translate(117.135938 28.56)scale(0.12 -0.12)">
     <use xlink:href="#DejaVuSans-43"/>
     <use x="69.824219" xlink:href="#DejaVuSans-72"/>
     <use x="110.90625" xlink:href="#DejaVuSans-65"/>
     <use x="172.429688" xlink:href="#DejaVuSans-73"/>
     <use x="224.529297" xlink:href="#DejaVuSans-63"/>
     <use x="279.509766" xlink:href="#DejaVuSans-69"/>
     <use x="307.292969" xlink:href="#DejaVuSans-6d"/>
     <use x="404.705078" xlink:href="#DejaVuSans-65"/>
     <use x="466.228516" xlink:href="#DejaVuSans-6e"/>
     <use x="529.607422" xlink:href="#DejaVuSans-74"/>
     <use x="568.816406" xlink:href="#DejaVuSans-6f"/>
     <use x="629.998047" xlink:href="#DejaVuSans-20"/>
     <use x="661.785156" xlink:href="#DejaVuSans-66"/>
     <use x="696.990234" xlink:href="#DejaVuSans-75"/>
     <use x="760.369141" xlink:href="#DejaVuSans-6e"/>
     <use x="823.748047" xlink:href="#DejaVuSans-63"/>
     <use x="878.728516" xlink:href="#DejaVuSans-61"/>
     <use x="940.007812" xlink:href="#DejaVuSans-6f"/>
     <use x="1001.189453" xlink:href="#DejaVuSans-20"/>
     <use x="1032.976562" xlink:href="#DejaVuSans-69"/>
     <use x="1060.759766" xlink:href="#DejaVuSans-6e"/>
     <use x="1124.138672" xlink:href="#DejaVuSans-73"/>
     <use x="1176.238281" xlink:href="#DejaVuSans-65"/>
     <use x="1237.761719" xlink:href="#DejaVuSans-72"/>
     <use x="1278.84375" xlink:href="#DejaVuSans-63"/>
     <use x="1333.824219" xlink:href="#DejaVuSans-61"/>
     <use x="1395.103516" xlink:href="#DejaVuSans-6f"/>
     <use x="1456.285156" xlink:href="#DejaVuSans-20"/>
     <use x="1488.072266" xlink:href="#DejaVuSans-68"/>
     <use x="1551.451172" xlink:href="#DejaVuSans-65"/>
     <use x="1612.974609" xlink:href="#DejaVuSans-61"/>
     <use x="1674.253906" xlink:href="#DejaVuSans-70"/>
    </g>
   </g>
  </g>
 </g>
 <defs>
  <clipPath id="p95106707ac">
   <rect height="217.44" width="334.8" x="54" y="34.56"/>
  </clipPath>
 </defs>
</svg>
